<svg width="32" height="32" viewBox="0 0 32 32" fill="none" xmlns="http://www.w3.org/2000/svg">
<path d="M13.9792 8.49517L10.5744 12.8728C10.4608 13.019 10.2999 13.1212 10.1193 13.162C9.93871 13.2029 9.74952 13.1798 9.58402 13.0968L6.18402 11.396C6.39064 10.9435 6.45159 10.4381 6.35845 9.94952C6.26531 9.46094 6.02267 9.01337 5.66409 8.66869C5.3055 8.32401 4.84869 8.09926 4.35681 8.0255C3.86493 7.95174 3.36229 8.03263 2.91838 8.25697C2.47447 8.48131 2.11123 8.83803 1.87888 9.2778C1.64653 9.71757 1.55655 10.2187 1.62139 10.7118C1.68622 11.2049 1.90266 11.6657 2.24078 12.0305C2.57891 12.3953 3.02201 12.646 3.50882 12.748L6.21602 25.612C6.31081 26.0614 6.55738 26.4644 6.9143 26.7535C7.27122 27.0425 7.71675 27.1999 8.17602 27.1992H23.8272C24.2862 27.1995 24.7314 27.042 25.088 26.753C25.4446 26.464 25.6909 26.0611 25.7856 25.612L28.4928 12.748C28.9796 12.646 29.4227 12.3953 29.7609 12.0305C30.099 11.6657 30.3154 11.2049 30.3803 10.7118C30.4451 10.2187 30.3551 9.71757 30.1228 9.2778C29.8904 8.83803 29.5272 8.48131 29.0833 8.25697C28.6394 8.03263 28.1367 7.95174 27.6448 8.0255C27.153 8.09926 26.6961 8.32401 26.3376 8.66869C25.979 9.01337 25.7363 9.46094 25.6432 9.94952C25.5501 10.4381 25.611 10.9435 25.8176 11.396L22.416 13.0968C22.2505 13.1798 22.0613 13.2029 21.8807 13.162C21.7001 13.1212 21.5393 13.019 21.4256 12.8728L18.0208 8.49357C18.2532 8.13093 18.3837 7.71244 18.3986 7.282C18.4135 6.85157 18.3123 6.42504 18.1057 6.04717C17.899 5.66931 17.5944 5.35401 17.224 5.13437C16.8535 4.91473 16.4307 4.79883 16 4.79883C15.5693 4.79883 15.1466 4.91473 14.7761 5.13437C14.4056 5.35401 14.1011 5.66931 13.8944 6.04717C13.6877 6.42504 13.5865 6.85157 13.6015 7.282C13.6164 7.71244 13.7469 8.13253 13.9792 8.49517Z" fill="#CCCED0"/>
<path d="M12.2119 24V22.9062L15.6436 19.4473C16.7236 18.3125 17.2705 17.6836 17.2705 16.8223C17.2705 15.8516 16.4775 15.2227 15.4385 15.2227C14.3447 15.2227 13.6338 15.9199 13.6338 16.9727H12.2119C12.1982 15.168 13.5791 13.9648 15.4658 13.9648C17.3799 13.9648 18.6924 15.168 18.7061 16.7812C18.6924 17.8887 18.1729 18.7637 16.3135 20.5957L14.3037 22.6328V22.7148H18.8701V24H12.2119Z" fill="white"/>
</svg>
